<?xml version="1.0" encoding="utf-8"?>
<!-- Generator: Adobe Illustrator 16.0.0, SVG Export Plug-In . SVG Version: 6.00 Build 0)  -->
<!DOCTYPE svg PUBLIC "-//W3C//DTD SVG 1.1//EN" "http://www.w3.org/Graphics/SVG/1.1/DTD/svg11.dtd">
<svg version="1.1" xmlns="http://www.w3.org/2000/svg" xmlns:xlink="http://www.w3.org/1999/xlink" x="0px" y="0px" width="370.5px"
	 height="147px" viewBox="0 0 370.5 147" enable-background="new 0 0 370.5 147" xml:space="preserve">
<g id="blanc">
	<rect id="do" fill="#FFFFFF" stroke="#1D1D1B" stroke-miterlimit="10" width="53" height="147"/>
	<rect id="re" x="53" fill="#FFFFFF" stroke="#1D1D1B" stroke-miterlimit="10" width="53" height="147"/>
	<rect id="mi" x="106" fill="#FFFFFF" stroke="#1D1D1B" stroke-miterlimit="10" width="53" height="147"/>
	<rect id="fa" x="159" fill="#FFFFFF" stroke="#1D1D1B" stroke-miterlimit="10" width="53" height="147"/>
	<rect id="sol" x="211.5" fill="#FFFFFF" stroke="#1D1D1B" stroke-miterlimit="10" width="53" height="147"/>
	<rect id="la" x="264.5" fill="#FFFFFF" stroke="#1D1D1B" stroke-miterlimit="10" width="53" height="147"/>
	<rect id="si" x="317.5" fill="#FFFFFF" stroke="#1D1D1B" stroke-miterlimit="10" width="53" height="147"/>
</g>
<g id="noir">
	<rect id="reb_1_" x="39.75" fill="#1D1D1B" stroke="#000000" stroke-miterlimit="10" width="26.5" height="83"/>
	<rect id="mib" x="92.75" fill="#1D1D1B" stroke="#000000" stroke-miterlimit="10" width="26.5" height="83"/>
	<rect id="fad" x="198.25" fill="#1D1D1B" stroke="#000000" stroke-miterlimit="10" width="26.5" height="83"/>
	<rect id="lab" x="251.75" fill="#1D1D1B" stroke="#000000" stroke-miterlimit="10" width="26.5" height="83"/>
	<rect id="sib" x="304.25" fill="#1D1D1B" stroke="#000000" stroke-miterlimit="10" width="26.5" height="83"/>
</g>
<g id="animaux">
	
		<image overflow="visible" width="381" height="352" xlink:href="img/ane.png"  transform="matrix(0.1364 0 0 0.1364 159.5234 89.6982)">
	</image>
	
		<image overflow="visible" width="530" height="389" xlink:href="img/chat.png"  transform="matrix(0.1009 0 0 0.1009 -0.249 95.6504)">
	</image>
	
		<image overflow="visible" width="419" height="480" xlink:href="img/cheval.png"  transform="matrix(0.0967 0 0 0.0967 109.7471 92.082)">
	</image>
	
		<image overflow="visible" width="494" height="340" xlink:href="img/chien.png"  transform="matrix(0.0951 0 0 0.0951 56.0039 100.5029)">
	</image>
	
		<image overflow="visible" width="497" height="387" xlink:href="img/cochon.png"  transform="matrix(0.1087 0 0 0.1087 210.998 95.6475)">
	</image>
	
		<image overflow="visible" width="679" height="444" xlink:href="img/elephant.png"  transform="matrix(0.0832 0 0 0.0832 78.002 27.0156)">
	</image>
	
		<image overflow="visible" width="264" height="239" xlink:href="img/grenouille.png"  transform="matrix(0.1525 0 0 0.1525 191.3765 27.2676)">
	</image>
	
		<image overflow="visible" width="387" height="334" xlink:href="img/lion.png"  transform="matrix(0.1266 0 0 0.1266 266.4971 94.1357)">
	</image>
	
		<image overflow="visible" width="512" height="412" xlink:href="img/ours.png"  transform="matrix(0.0962 0 0 0.0962 319.373 96.8555)">
	</image>
	
		<image overflow="visible" width="206" height="278" xlink:href="img/poule.png"  transform="matrix(0.1878 0 0 0.1878 298.1592 15.3984)">
	</image>
	
		<image overflow="visible" width="477" height="357" xlink:href="img/singe.png"  transform="matrix(0.1038 0 0 0.1038 239.7505 26.9629)">
	</image>
	
		<image overflow="visible" width="667" height="433" xlink:href="img/vache.png"  transform="matrix(0.0817 0 0 0.0817 26.0029 27.7979)">
	</image>
</g>
</svg>
