<?xml version="1.0" encoding="utf-8"?>
<!-- Generator: Adobe Illustrator 17.0.1, SVG Export Plug-In . SVG Version: 6.00 Build 0)  -->
<!DOCTYPE svg PUBLIC "-//W3C//DTD SVG 1.1//EN" "http://www.w3.org/Graphics/SVG/1.1/DTD/svg11.dtd">
<svg version="1.1" id="Calque_1" xmlns="http://www.w3.org/2000/svg" xmlns:xlink="http://www.w3.org/1999/xlink" x="0px" y="0px"
	 width="576px" height="623px" viewBox="0 0 576 623" enable-background="new 0 0 576 623" xml:space="preserve">
<rect x="-154" y="-102" fill="#17C0AD" width="816" height="822"/>
<g display="none">
	<path display="inline" fill="#FFFFFF" d="M141,417.975c0-66.992,0-133.983,0-200.975c67.325,0,134.65,0,201.975,0
		c0,66.992,0,133.983,0,200.975C275.65,417.975,208.325,417.975,141,417.975z M212.73,322.651c1.042,0.22,1.683,0.472,2.324,0.473
		c17.488,0.037,34.977-0.016,52.465,0.119c3.464,0.027,3.62-1.809,3.608-4.418c-0.06-13.657,0.043-27.316-0.046-40.973
		c-0.073-11.195-3.659-21.408-10.495-30.091c-3.562-4.524-8.273-8.486-13.218-11.438c-2.6-1.552-6.841-0.584-10.303-0.297
		c-0.82,0.068-1.388,2.069-2.265,3c-0.507,0.538-1.491,0.596-2.1,1.075c-3.471,2.733-7.631,4.977-10.188,8.408
		c-6.612,8.872-9.971,19.115-10.026,30.285c-0.062,12.825-0.054,25.65-0.045,38.475C212.443,319.061,212.629,320.855,212.73,322.651
		z M270.969,376.958c-19.069,0-37.348-0.048-55.624,0.13c-0.991,0.01-2.779,1.872-2.814,2.919
		c-0.239,6.978-0.303,13.976-0.018,20.952c0.195,4.785,3.258,7.794,8.041,7.852c14.138,0.171,28.281,0.16,42.419,0.02
		c4.305-0.043,7.648-2.46,7.876-6.839C271.269,393.903,270.969,385.777,270.969,376.958z M270.97,347.922
		c0.032-0.677,0.064-1.353,0.095-2.03c-1.416-0.296-2.831-0.843-4.248-0.849c-16.612-0.066-33.225-0.088-49.837,0.007
		c-1.415,0.008-2.825,0.937-4.237,1.437c1.441,0.676,2.877,1.928,4.325,1.941c16.445,0.154,32.892,0.136,49.338,0.106
		C267.927,348.534,269.448,348.136,270.97,347.922z M271.077,328.818c-0.022-0.668-0.044-1.335-0.066-2.003
		c-1.677-0.235-3.353-0.669-5.031-0.675c-16.11-0.055-32.219-0.04-48.329-0.033c-1.159,0.001-2.375-0.091-3.454,0.23
		c-0.577,0.172-1.142,1.088-1.281,1.758c-0.079,0.38,0.643,1.237,1.133,1.359c1.106,0.274,2.293,0.296,3.447,0.297
		c16.276,0.025,32.552,0.055,48.827-0.005C267.908,329.739,269.492,329.141,271.077,328.818z M271.001,335.14
		c0.029-0.653,0.058-1.306,0.086-1.958c-1.419-0.335-2.838-0.955-4.259-0.961c-16.606-0.077-33.212-0.1-49.817,0.002
		c-1.399,0.009-2.792,1.024-4.188,1.572c1.436,0.675,2.867,1.925,4.31,1.938c16.439,0.146,32.879,0.122,49.319,0.08
		C267.969,335.808,269.485,335.374,271.001,335.14z M241.674,351.042c0-0.006,0-0.012,0-0.017c-8.477,0-16.956-0.068-25.431,0.078
		c-1.174,0.02-2.331,1.097-3.495,1.684c1.174,0.618,2.344,1.765,3.522,1.774c16.954,0.128,33.909,0.148,50.863,0.023
		c1.257-0.009,2.504-1.316,3.755-2.02c-1.261-0.507-2.515-1.435-3.783-1.454C258.63,350.979,250.152,351.042,241.674,351.042z
		 M271.081,372.789c-0.037-0.646-0.073-1.293-0.11-1.939c-1.524-0.231-3.047-0.658-4.571-0.663
		c-16.442-0.056-32.885-0.097-49.326,0.035c-1.43,0.012-2.849,1.281-4.274,1.966c1.406,0.542,2.809,1.547,4.219,1.557
		c16.608,0.113,33.216,0.102,49.824,0.035C268.258,373.774,269.669,373.134,271.081,372.789z M270.979,367.06
		c0.037-0.662,0.074-1.325,0.111-1.987c-1.584-0.327-3.166-0.93-4.751-0.937c-16.275-0.073-32.551-0.05-48.827-0.048
		c-0.995,0-2.041-0.117-2.967,0.152c-0.664,0.192-1.168,0.937-1.744,1.435c0.605,0.651,1.098,1.579,1.844,1.879
		c0.869,0.349,1.959,0.181,2.953,0.182c16.11,0.016,32.219,0.045,48.329,0.003C267.612,367.733,269.295,367.296,270.979,367.06z
		 M270.789,341.898c0.108-0.646,0.216-1.292,0.325-1.939c-1.643-0.331-3.284-0.938-4.929-0.948
		c-12.945-0.081-25.891-0.05-38.837-0.049c-4.149,0-8.301-0.062-12.445,0.092c-0.744,0.028-1.454,0.972-2.179,1.493
		c0.66,0.59,1.246,1.322,2.007,1.722c0.53,0.279,1.3,0.125,1.963,0.126c16.763,0.019,33.526,0.045,50.289,0.024
		C268.252,342.416,269.52,342.079,270.789,341.898z M271.086,360.385c0.004-0.561,0.007-1.122,0.011-1.683
		c-1.408-0.279-2.815-0.796-4.225-0.801c-16.763-0.064-33.526-0.091-50.288,0.022c-1.285,0.009-2.563,1.154-3.844,1.77
		c1.243,0.5,2.483,1.427,3.729,1.434c16.928,0.099,33.858,0.089,50.786,0.039C268.534,361.163,269.81,360.658,271.086,360.385z
		 M250.142,233.772c-0.904-2.951-1.326-6.887-2.288-7.024c-4.156-0.59-8.528-0.389-12.674,0.35
		c-0.725,0.129-0.742,4.226-1.113,6.673C239.578,233.772,244.167,233.772,250.142,233.772z"/>
</g>
<path fill="#FFFFFF" d="M209.717,338.947c-0.276-4.929-0.788-9.853-0.791-14.778c-0.027-35.203-0.049-70.407,0.122-105.61
	c0.149-30.66,9.372-58.777,27.52-83.129c7.018-9.417,18.438-15.578,27.965-23.079c1.669-1.314,2.775-13.66,5.027-13.847
	c9.503-0.789,42.366-2.468,42.777,0.823c1.511,12.087,18.964,21.634,28.74,34.052c18.764,23.834,28.609,51.869,28.809,82.599
	c0.243,37.488-0.041,74.979,0.125,112.468c0.032,7.162-0.396,12.2-9.905,12.127c-48.002-0.37-96.008-0.224-144.012-0.326
	C214.335,340.241,212.577,339.55,209.717,338.947z"/>
<path fill="#FFFFFF" d="M369.579,488.018c0,24.205,0.823,46.512-0.329,68.716c-0.624,12.019-9.8,18.654-21.618,18.771
	c-38.81,0.385-77.63,0.416-116.438-0.054c-13.13-0.159-21.536-8.418-22.073-21.553c-0.782-19.147-0.607-38.358,0.049-57.511
	c0.098-2.875,5.004-7.987,7.725-8.014C267.062,487.888,317.235,488.018,369.579,488.018z"/>
<path fill="#FFFFFF" d="M369.581,408.315c-4.176,0.588-8.351,1.679-12.527,1.686c-45.144,0.081-90.289,0.131-135.43-0.292
	c-3.973-0.037-7.915-3.472-11.871-5.329c3.877-1.375,7.747-3.924,11.631-3.946c45.598-0.261,91.199-0.203,136.799-0.02
	c3.89,0.015,7.774,1.518,11.66,2.33C369.756,404.601,369.668,406.458,369.581,408.315z"/>
<path fill="#FFFFFF" d="M369.877,355.875c-4.351,0.888-8.699,2.531-13.053,2.547c-44.675,0.165-89.351,0.081-134.027,0.013
	c-3.168-0.005-6.424-0.063-9.461-0.816c-1.346-0.334-3.325-2.688-3.11-3.729c0.381-1.838,1.932-4.353,3.517-4.825
	c2.963-0.882,6.3-0.63,9.482-0.631c44.22-0.02,88.44-0.059,132.66,0.091c4.605,0.016,9.207,1.207,13.81,1.852
	C369.755,352.209,369.816,354.042,369.877,355.875z"/>
<path fill="#FFFFFF" d="M369.668,373.23c-4.162,0.643-8.323,1.835-12.487,1.845c-45.126,0.114-90.254,0.18-135.377-0.22
	c-3.959-0.035-7.887-3.465-11.829-5.318c3.831-1.504,7.655-4.292,11.495-4.316c45.58-0.28,91.164-0.215,136.745-0.004
	c3.901,0.018,7.794,1.719,11.69,2.639C369.826,369.646,369.747,371.438,369.668,373.23z"/>
<path fill="#FFFFFF" d="M289.167,416.879c23.27,0,46.542-0.172,69.806,0.186c3.481,0.054,6.924,2.6,10.384,3.993
	c-3.435,1.932-6.858,5.519-10.307,5.545c-46.537,0.341-93.078,0.287-139.615-0.064c-3.235-0.024-6.446-3.173-9.669-4.869
	c3.197-1.613,6.371-4.568,9.594-4.623c23.263-0.401,46.536-0.215,69.805-0.215C289.167,416.847,289.167,416.863,289.167,416.879z"/>
<path fill="#FFFFFF" d="M369.888,476.573c-3.877,0.947-7.75,2.703-11.631,2.719c-45.588,0.184-91.178,0.214-136.765-0.096
	c-3.87-0.026-7.722-2.784-11.582-4.273c3.91-1.881,7.806-5.365,11.731-5.397c45.13-0.363,90.264-0.251,135.397-0.096
	c4.185,0.014,8.365,1.186,12.548,1.82C369.686,473.024,369.787,474.799,369.888,476.573z"/>
<path fill="#FFFFFF" d="M369.607,460.846c-4.622,0.648-9.242,1.847-13.865,1.859c-44.22,0.117-88.44,0.038-132.659-0.007
	c-2.729-0.003-5.722,0.46-8.107-0.499c-2.048-0.823-3.402-3.372-5.063-5.158c1.58-1.367,2.964-3.41,4.787-3.938
	c2.543-0.736,5.414-0.416,8.144-0.416c44.676-0.008,89.352-0.069,134.027,0.131c4.351,0.019,8.694,1.676,13.041,2.572
	C369.81,457.21,369.708,459.028,369.607,460.846z"/>
<path fill="#FFFFFF" d="M369.086,391.778c-3.483,0.498-6.965,1.424-10.448,1.428c-46.014,0.056-92.027-0.014-138.041-0.067
	c-1.819-0.002-3.932,0.421-5.388-0.345c-2.088-1.098-3.696-3.107-5.509-4.727c1.991-1.43,3.94-4.021,5.981-4.097
	c11.374-0.422,22.771-0.251,34.16-0.252c35.535-0.003,71.071-0.088,106.605,0.135c4.515,0.028,9.02,1.695,13.53,2.603
	C369.68,388.231,369.383,390.005,369.086,391.778z"/>
<path fill="#FFFFFF" d="M369.902,442.526c-3.504,0.747-7.007,2.134-10.514,2.145c-46.468,0.136-92.938,0.165-139.405-0.108
	c-3.42-0.02-6.825-2.565-10.236-3.936c3.516-1.693,7.023-4.836,10.551-4.859c46.011-0.31,92.025-0.234,138.038-0.059
	c3.868,0.015,7.731,1.433,11.596,2.2C369.921,439.447,369.911,440.987,369.902,442.526z"/>
<path fill="#FFFFFF" d="M312.407,92.982c-16.4,0-28.996,0-44.124,0c1.02-6.718,1.066-17.963,3.055-18.318
	c11.38-2.031,23.379-2.583,34.789-0.962C308.767,74.077,309.925,84.881,312.407,92.982z"/>
<rect x="54" y="11" fill="#17C0AD" width="475" height="280"/>
<g>
</g>
<g>
</g>
<g>
</g>
<g>
</g>
<g>
</g>
<g>
</g>
<g>
</g>
<g>
</g>
<g>
</g>
<g>
</g>
<g>
</g>
<g>
</g>
<g>
</g>
<g>
</g>
<g>
</g>
</svg>
