<?xml version="1.0" encoding="utf-8"?>
<!-- Generator: Adobe Illustrator 17.0.1, SVG Export Plug-In . SVG Version: 6.00 Build 0)  -->
<!DOCTYPE svg PUBLIC "-//W3C//DTD SVG 1.1//EN" "http://www.w3.org/Graphics/SVG/1.1/DTD/svg11.dtd">
<svg version="1.1" id="Calque_1" xmlns="http://www.w3.org/2000/svg" xmlns:xlink="http://www.w3.org/1999/xlink" x="0px" y="0px"
	 width="206.708px" height="44.352px" viewBox="0 0 206.708 44.352" enable-background="new 0 0 206.708 44.352"
	 xml:space="preserve">
<rect x="61.393" y="35.412" display="none" fill="#2A3F54" width="224" height="40"/>
<g>
	<path fill="#FFFFFF" d="M19.143,4.395c9.109,0,16.502,7.438,16.502,16.547s-7.393,16.458-16.502,16.458S2.685,30.051,2.685,20.941
		S10.033,4.395,19.143,4.395z M19.143,13.02c-4.313,0-7.833,3.521-7.833,7.878c0,4.313,3.521,7.877,7.833,7.877
		c4.357,0,7.877-3.564,7.877-7.877C27.02,16.54,23.5,13.02,19.143,13.02z"/>
	<path fill="#FFFFFF" d="M44.572,11.348c-1.893,0-3.477-1.496-3.477-3.389c0-1.892,1.584-3.564,3.477-3.564
		c1.892,0,3.477,1.673,3.477,3.564c0,0,0.22,3.873-3.477,6.997V11.348z"/>
	<path fill="#FFFFFF" d="M54.164,4.395h12.233c9.109,0,16.502,7.394,16.502,16.503s-7.393,16.502-16.502,16.502H54.164V4.395z
		 M62.789,28.862h3.652c4.313,0,7.833-3.521,7.833-7.833c0-4.269-3.521-7.789-7.833-7.789h-3.652V28.862z"/>
	<path fill="#FFFFFF" d="M108.022,37.399l-5.105-8.757h-5.369v8.757h-8.669V4.395h13.906c6.689,0,12.146,5.457,12.146,12.146
		c0,3.521-1.54,6.689-3.917,8.89l6.997,11.97H108.022z M97.548,21.161h5.369c2.641,0,4.753-2.068,4.753-4.709
		s-2.112-4.752-4.753-4.752h-5.369V21.161z"/>
	<path fill="#FFFFFF" d="M122.23,4.395h8.669v33.005h-8.669V4.395z"/>
	<path fill="#FFFFFF" d="M161.789,37.399l-15.578-15.622v15.622h-8.669V4.395h3.521l15.622,15.578V4.395h8.669v33.005H161.789z"/>
	<path fill="#FFFFFF" d="M203.898,4.395l-15.05,15.095l17.867,17.91H194.48l-11.75-11.706l-2.068,2.112v9.594h-8.669V4.395h8.669
		v11.134l11.09-11.134H203.898z"/>
</g>
</svg>
