<?xml version="1.0" encoding="utf-8"?>
<!-- Generator: Adobe Illustrator 17.0.1, SVG Export Plug-In . SVG Version: 6.00 Build 0)  -->
<!DOCTYPE svg PUBLIC "-//W3C//DTD SVG 1.1//EN" "http://www.w3.org/Graphics/SVG/1.1/DTD/svg11.dtd">
<svg version="1.1" id="Capa_1" xmlns="http://www.w3.org/2000/svg" xmlns:xlink="http://www.w3.org/1999/xlink" x="0px" y="0px"
	 width="512px" height="512px" viewBox="0 0 512 512" enable-background="new 0 0 512 512" xml:space="preserve">
<path fill="#FF6D00" d="M506.583,430.919L287.428,46.039c-6.955-12.214-18.703-19.543-31.427-19.543
	c-12.724,0-24.474,7.293-31.427,19.507L5.417,430.848c-6.906,12.13-7.227,26.057-0.856,37.014
	c6.37,10.957,18.507,17.643,32.465,17.643h437.948c13.958,0,26.095-6.686,32.465-17.643
	C513.81,456.904,513.491,443.049,506.583,430.919z M254.555,149.661c16.775,0,30.373,13.599,30.373,30.373v109.344
	c0,16.775-13.599,30.373-30.373,30.373s-30.373-13.599-30.373-30.373V180.034C224.182,163.26,237.78,149.661,254.555,149.661z
	 M256.001,354.076c16.775,0,30.373,13.599,30.373,30.373s-13.599,30.373-30.373,30.373s-30.373-13.599-30.373-30.373
	C225.627,367.674,239.226,354.076,256.001,354.076z"/>
</svg>
